<svg xmlns="http://www.w3.org/2000/svg" viewBox="0 0 24 24" width="50" height="50">
  <path fill="currentColor" d="M12,16A3,3 0 0,1 9,13C9,11.88 9.61,10.9 10.5,10.39L20.21,4.77L14.68,14.35C14.18,15.33 13.17,16 12,16M12,3C13.81,3 15.5,3.5 16.97,4.32L14.87,5.53C14,5.19 13,5 12,5A8,8 0 0,0 4,13C4,15.21 4.89,17.21 6.34,18.65H6.35C6.74,19.04 6.74,19.67 6.35,20.06C5.96,20.45 5.33,20.45 4.94,20.07C2.46,17.54 1,14.11 1,10.5C1,4.76 5.76,0 11.5,0L12,0C14.62,0 16.88,0.87 18.94,2.44L15.84,4.38C14.77,3.5 13.43,3 12,3M23,10.5C23,14.11 21.54,17.54 19.07,20.07C18.68,20.45 18.05,20.45 17.66,20.06C17.27,19.67 17.27,19.04 17.66,18.65C19.11,17.21 20,15.21 20,13C20,11.92 19.82,10.86 19.44,9.9L21.66,8.15C22.56,9.26 23,10.82 23,10.5Z"/>
</svg>
